<svg width="135" height="42" viewBox="0 0 135 42" fill="none" xmlns="http://www.w3.org/2000/svg">
<g filter="url(#filter0_ii_317_1711)">
<circle cx="21.4899" cy="20.9899" r="20.9899" fill="#D91F23"/>
</g>
<path d="M20.2948 16.011H17.0703C17.0114 15.5939 16.8912 15.2233 16.7096 14.8994C16.528 14.5706 16.2949 14.2908 16.0102 14.0602C15.7256 13.8295 15.3967 13.6528 15.0237 13.5301C14.6556 13.4074 14.2557 13.3461 13.8238 13.3461C13.0434 13.3461 12.3637 13.5399 11.7846 13.9277C11.2054 14.3105 10.7564 14.87 10.4373 15.6062C10.1183 16.3374 9.95883 17.2257 9.95883 18.2711C9.95883 19.3459 10.1183 20.249 10.4373 20.9802C10.7613 21.7115 11.2128 22.2636 11.7919 22.6366C12.371 23.0096 13.041 23.1961 13.8017 23.1961C14.2287 23.1961 14.6237 23.1397 14.9869 23.0268C15.355 22.9139 15.6814 22.7495 15.966 22.5336C16.2507 22.3127 16.4863 22.0452 16.6728 21.7311C16.8642 21.417 16.9967 21.0588 17.0703 20.6563L20.2948 20.6711C20.2113 21.3631 20.0027 22.0305 19.669 22.6735C19.3402 23.3115 18.896 23.8832 18.3365 24.3887C17.7819 24.8893 17.1194 25.2869 16.3489 25.5814C15.5832 25.8709 14.717 26.0157 13.7501 26.0157C12.4054 26.0157 11.203 25.7114 10.1429 25.1028C9.08769 24.4943 8.25335 23.6133 7.63987 22.46C7.0313 21.3066 6.72701 19.9103 6.72701 18.2711C6.72701 16.627 7.03621 15.2282 7.6546 14.0749C8.27299 12.9216 9.11223 12.0431 10.1723 11.4394C11.2324 10.8308 12.425 10.5265 13.7501 10.5265C14.6237 10.5265 15.4335 10.6492 16.1795 10.8946C16.9304 11.14 17.5954 11.4983 18.1746 11.9694C18.7537 12.4357 19.2249 13.0074 19.588 13.6847C19.9561 14.362 20.1917 15.1375 20.2948 16.011Z" fill="white"/>
<path d="M34.3225 25.0094C34.3225 26.6535 34.0108 28.0523 33.3875 29.2056C32.7691 30.359 31.925 31.2399 30.8551 31.8485C29.7901 32.4521 28.5926 32.754 27.2625 32.754C25.9227 32.754 24.7203 32.4497 23.6553 31.8411C22.5903 31.2325 21.7486 30.3516 21.1302 29.1982C20.5118 28.0449 20.2026 26.6486 20.2026 25.0094C20.2026 23.3653 20.5118 21.9665 21.1302 20.8132C21.7486 19.6598 22.5903 18.7813 23.6553 18.1777C24.7203 17.5691 25.9227 17.2648 27.2625 17.2648C28.5926 17.2648 29.7901 17.5691 30.8551 18.1777C31.925 18.7813 32.7691 19.6598 33.3875 20.8132C34.0108 21.9665 34.3225 23.3653 34.3225 25.0094ZM31.0907 25.0094C31.0907 23.9444 30.9312 23.0463 30.6121 22.315C30.298 21.5837 29.8539 21.0291 29.2797 20.6512C28.7054 20.2733 28.0331 20.0844 27.2625 20.0844C26.492 20.0844 25.8196 20.2733 25.2454 20.6512C24.6712 21.0291 24.2246 21.5837 23.9056 22.315C23.5915 23.0463 23.4344 23.9444 23.4344 25.0094C23.4344 26.0744 23.5915 26.9725 23.9056 27.7038C24.2246 28.4351 24.6712 28.9897 25.2454 29.3676C25.8196 29.7455 26.492 29.9344 27.2625 29.9344C28.0331 29.9344 28.7054 29.7455 29.2797 29.3676C29.8539 28.9897 30.298 28.4351 30.6121 27.7038C30.9312 26.9725 31.0907 26.0744 31.0907 25.0094Z" fill="white"/>
<path d="M63.8918 14.3563H66.4572V15.8178C66.4572 17.8857 65.3533 18.8808 63.1766 18.8808C61.4663 18.8808 59.927 18.1811 59.927 15.6468V10.6092C59.927 8.07485 61.4663 7.37519 63.1766 7.37519C65.0579 7.37519 66.4572 7.93492 66.4572 10.3293V11.5421H63.8762V10.0184C63.8762 9.56746 63.7363 9.14767 63.1766 9.14767C62.6479 9.14767 62.508 9.56746 62.508 10.0184V16.2376C62.508 16.6885 62.6479 17.1083 63.1766 17.1083C63.7363 17.1083 63.8762 16.6885 63.8762 16.2376L63.8918 14.3563ZM73.6694 7.59286V15.5068C73.6073 17.8546 72.7988 18.8808 70.3888 18.8808C67.2015 18.8808 67.1393 16.6574 67.1393 15.2581V7.59286H69.7202V15.569C69.7202 16.4553 69.7202 17.1083 70.3888 17.1083C71.0885 17.1083 71.0885 16.4553 71.0885 15.569V7.59286H73.6694ZM76.9014 18.6631H74.3204V7.59286H76.9169C79.3735 7.59286 80.835 7.84163 80.835 10.1738C80.835 11.5576 80.2598 12.4594 78.8604 12.6926V12.7237C80.1043 12.7548 80.835 13.2213 80.835 14.8072V17.1238C80.835 17.5592 80.9128 18.2122 81.2237 18.6631H78.6272C78.3163 18.2122 78.2541 17.5592 78.2541 17.1238V14.7761C78.2541 13.9987 77.7876 13.61 77.3212 13.61H76.9014V18.6631ZM76.9014 9.17876V12.0241C78.0675 12.0241 78.2541 11.6354 78.2541 10.5936C78.2541 9.56746 78.083 9.17876 76.9014 9.17876ZM84.1136 18.6631H81.5326V7.59286H84.1292C86.5858 7.59286 88.0473 7.84163 88.0473 10.1738C88.0473 11.5576 87.472 12.4594 86.0727 12.6926V12.7237C87.3165 12.7548 88.0473 13.2213 88.0473 14.8072V17.1238C88.0473 17.5592 88.125 18.2122 88.436 18.6631H85.8395C85.5285 18.2122 85.4663 17.5592 85.4663 17.1238V14.7761C85.4663 13.9987 84.9999 13.61 84.5334 13.61H84.1136V18.6631ZM84.1136 9.17876V12.0241C85.2797 12.0241 85.4663 11.6354 85.4663 10.5936C85.4663 9.56746 85.2953 9.17876 84.1136 9.17876ZM91.3103 18.6631H88.7293V7.59286H91.3103V18.6631ZM95.9141 14.3563H98.4796V15.8178C98.4796 17.8857 97.3756 18.8808 95.1989 18.8808C93.4886 18.8808 91.9494 18.1811 91.9494 15.6468V10.6092C91.9494 8.07485 93.4886 7.37519 95.1989 7.37519C97.0802 7.37519 98.4796 7.93492 98.4796 10.3293V11.5421H95.8986V10.0184C95.8986 9.56746 95.7586 9.14767 95.1989 9.14767C94.6703 9.14767 94.5303 9.56746 94.5303 10.0184V16.2376C94.5303 16.6885 94.6703 17.1083 95.1989 17.1083C95.7586 17.1083 95.8986 16.6885 95.8986 16.2376L95.9141 14.3563ZM105.692 7.59286V15.5068C105.63 17.8546 104.821 18.8808 102.411 18.8808C99.2238 18.8808 99.1616 16.6574 99.1616 15.2581V7.59286H101.743V15.569C101.743 16.4553 101.743 17.1083 102.411 17.1083C103.111 17.1083 103.111 16.4553 103.111 15.569V7.59286H105.692ZM111.722 18.6631H106.343V7.59286H108.924V16.9839H111.722V18.6631ZM114.834 14.263H115.767L115.316 9.33424H115.285L114.834 14.263ZM113.839 7.59286H117.384L118.814 18.6631H116.249L115.953 15.9422H114.554L114.134 18.6631H111.957L113.839 7.59286ZM121.891 18.6631H119.31V7.59286H121.906C124.363 7.59286 125.824 7.84163 125.824 10.1738C125.824 11.5576 125.249 12.4594 123.85 12.6926V12.7237C125.093 12.7548 125.824 13.2213 125.824 14.8072V17.1238C125.824 17.5592 125.902 18.2122 126.213 18.6631H123.616C123.305 18.2122 123.243 17.5592 123.243 17.1238V14.7761C123.243 13.9987 122.777 13.61 122.31 13.61H121.891V18.6631ZM121.891 9.17876V12.0241C123.057 12.0241 123.243 11.6354 123.243 10.5936C123.243 9.56746 123.072 9.17876 121.891 9.17876ZM62.6324 31.263H63.5653L63.1144 26.3342H63.0833L62.6324 31.263ZM61.6373 24.5929H65.1823L66.6127 35.6631H64.0473L63.7518 32.9422H62.3525L61.9327 35.6631H59.756L61.6373 24.5929ZM71.104 31.3563H73.6694V32.8178C73.6694 34.8857 72.5655 35.8808 70.3888 35.8808C68.6785 35.8808 67.1393 35.1811 67.1393 32.6468V27.6092C67.1393 25.0748 68.6785 24.3752 70.3888 24.3752C72.2701 24.3752 73.6694 24.9349 73.6694 27.3293V28.5421H71.0885V27.0184C71.0885 26.5675 70.9485 26.1477 70.3888 26.1477C69.8602 26.1477 69.7202 26.5675 69.7202 27.0184V33.2376C69.7202 33.6885 69.8602 34.1083 70.3888 34.1083C70.9485 34.1083 71.0885 33.6885 71.0885 33.2376L71.104 31.3563ZM76.0307 26.2721H74.2271V24.5929H80.4152V26.2721H78.6117V35.6631H76.0307V26.2721ZM83.5059 35.6631H80.9249V24.5929H83.5059V35.6631ZM85.6376 35.6631L83.9273 24.5929H86.6948L87.3168 33.1288H87.3479L88.4673 24.5929H90.8773L89.0271 35.6631H85.6376ZM93.8915 35.6631H91.3106V24.5929H93.8915V35.6631ZM96.2098 26.2721H94.4062V24.5929H100.594V26.2721H98.7908V35.6631H96.2098V26.2721ZM103.685 35.6631H101.104V24.5929H103.685V35.6631ZM109.641 35.6631H104.293V24.5929H109.641V26.2721H106.874V28.6975H109.548V30.3767H106.874V33.9839H109.641V35.6631ZM116.609 28.5576H114.028V27.0028C114.028 26.4586 113.857 26.1477 113.344 26.1477C112.784 26.1477 112.66 26.4586 112.66 27.0028C112.66 28.8686 116.609 29.4128 116.609 32.8333C116.609 34.9168 115.489 35.8808 113.328 35.8808C111.68 35.8808 110.079 35.321 110.079 33.4086V31.3563H112.66V33.2687C112.66 33.9217 112.862 34.1083 113.344 34.1083C113.764 34.1083 114.028 33.9217 114.028 33.2687C114.028 30.7654 110.079 30.7188 110.079 27.1427C110.079 25.137 111.4 24.3752 113.39 24.3752C115.132 24.3752 116.609 24.966 116.609 26.8162V28.5576Z" fill="#363636"/>
<path d="M47.6602 20.9883H54.6568" stroke="#363636" stroke-width="2.07308"/>
<defs>
<filter id="filter0_ii_317_1711" x="-0.536538" y="-0.518269" width="45.0891" height="44.0526" filterUnits="userSpaceOnUse" color-interpolation-filters="sRGB">
<feFlood flood-opacity="0" result="BackgroundImageFix"/>
<feBlend mode="normal" in="SourceGraphic" in2="BackgroundImageFix" result="shape"/>
<feColorMatrix in="SourceAlpha" type="matrix" values="0 0 0 0 0 0 0 0 0 0 0 0 0 0 0 0 0 0 127 0" result="hardAlpha"/>
<feOffset dx="2.07308" dy="1.55481"/>
<feGaussianBlur stdDeviation="1.03654"/>
<feComposite in2="hardAlpha" operator="arithmetic" k2="-1" k3="1"/>
<feColorMatrix type="matrix" values="0 0 0 0 1 0 0 0 0 1 0 0 0 0 1 0 0 0 0.25 0"/>
<feBlend mode="normal" in2="shape" result="effect1_innerShadow_317_1711"/>
<feColorMatrix in="SourceAlpha" type="matrix" values="0 0 0 0 0 0 0 0 0 0 0 0 0 0 0 0 0 0 127 0" result="hardAlpha"/>
<feOffset dx="-1.03654" dy="-0.518269"/>
<feGaussianBlur stdDeviation="1.03654"/>
<feComposite in2="hardAlpha" operator="arithmetic" k2="-1" k3="1"/>
<feColorMatrix type="matrix" values="0 0 0 0 0 0 0 0 0 0 0 0 0 0 0 0 0 0 0.25 0"/>
<feBlend mode="normal" in2="effect1_innerShadow_317_1711" result="effect2_innerShadow_317_1711"/>
</filter>
</defs>
</svg>
